<?xml version="1.0" encoding="UTF-8"?>
<!DOCTYPE svg PUBLIC "-//W3C//DTD SVG 1.1//EN" "http://www.w3.org/Graphics/SVG/1.1/DTD/svg11.dtd">
<!-- Creator: CorelDRAW X7 -->
<svg xmlns="http://www.w3.org/2000/svg" xml:space="preserve" width="15.2654cm" height="21.6916cm" version="1.1" shape-rendering="geometricPrecision" text-rendering="geometricPrecision" image-rendering="optimizeQuality" fill-rule="evenodd" clip-rule="evenodd"
viewBox="0 0 1526540 2169160"
 xmlns:xlink="http://www.w3.org/1999/xlink">
 <defs>
   <mask id="id0">
     <linearGradient id="id1" gradientUnits="userSpaceOnUse" x1="1.99948e+006" y1="-1.34584e+006" x2="779646" y2="1.70314e+006">
      <stop offset="0" stop-opacity="1" stop-color="white"/>
      <stop offset="0.341176" stop-opacity="0.501961" stop-color="white"/>
      <stop offset="1" stop-opacity="0" stop-color="white"/>
     </linearGradient>
    <rect fill="url(#id1)" x="-1429" y="517" width="1526078" height="2169529"/>
   </mask>
 </defs>
 <g id="Слой_x0020_1">
  <metadata id="CorelCorpID_0Corel-Layer"/>
  <path fill="#D7EDF4" mask="url(#id0)" d="M1524624 1521979l0 -436697 0 -436698c0,-77315 -38327,-143695 -105278,-182358l-378194 -218343 -378182 -218343c-66963,-38663 -143616,-38663 -210579,0l-378182 218343 -75613 43654 0 1587489 75613 43654 378182 218343c66963,38663 143616,38663 210579,0l378182 -218343 378194 -218343c66963,-38663 105278,-105043 105278,-182358z"/>
 </g>
</svg>
