<?xml version="1.0" encoding="UTF-8"?>
<!DOCTYPE svg PUBLIC "-//W3C//DTD SVG 1.1//EN" "http://www.w3.org/Graphics/SVG/1.1/DTD/svg11.dtd">
<!-- Creator: CorelDRAW X7 -->
<svg xmlns="http://www.w3.org/2000/svg" xml:space="preserve" width="2.64158cm" height="2.64158cm" version="1.1" shape-rendering="geometricPrecision" text-rendering="geometricPrecision" image-rendering="optimizeQuality" fill-rule="evenodd" clip-rule="evenodd"
viewBox="0 0 264158 264158"
 xmlns:xlink="http://www.w3.org/1999/xlink">
 <g id="Слой_x0020_1">
  <metadata id="CorelCorpID_0Corel-Layer"/>
  <circle fill="white" cx="130741" cy="132459" r="131150"/>
  <path fill="#1B1C1D" d="M189120 243621c2689,-1421 5335,-2944 7933,-4567 -28126,-11597 -36989,-23225 -36989,-46654 0,-4474 772,-7453 1897,-9854 796,-1697 1769,-3105 2772,-4547 2452,-3598 5501,-8074 7829,-20736 1146,-6087 4672,-7787 7040,-8932 2501,-1197 5105,-2464 6018,-14606 0,-6210 -2808,-7870 -2888,-7950 -1499,-833 -2452,-2656 -2136,-4358 1975,-10756 5306,-44351 -5541,-56973 -7394,-8579 -19074,-8823 -21282,-8743 -353,-40 -717,-40 -1073,-120 -1063,-273 -2846,-1186 -3403,-2139 -1407,-2429 -9926,-6463 -22937,-6111 -7111,192 -15564,1694 -24931,5485 -17184,6958 -23112,19125 -24196,32549 -568,7037 195,14420 1365,21578 1105,7749 2331,14474 2331,14474 313,1866 -588,3646 -2291,4438 40,0 -2733,1700 -2733,8152 910,11860 3482,13098 6015,14324 2331,1102 5894,2805 7000,8932 2340,12633 5418,17098 7881,20692 1003,1452 1974,2875 2765,4591 1107,2404 1863,5381 1863,9814 0,23469 -8823,35137 -37000,46694 2168,1351 4368,2633 6598,3846 3019,1640 6093,3152 9215,4534 3947,1746 7973,3283 12064,4608 1321,427 2649,833 3984,1216 415,119 831,236 1248,351 1727,476 3465,915 5212,1317 1978,454 3969,860 5971,1218 1727,316 3468,588 5221,818 5256,709 10579,1086 15946,1122 284,2 568,3 853,3 1459,0 2912,-25 4359,-75 4271,-147 8511,-511 12709,-1086 1766,-242 3524,-522 5274,-839 4898,-887 9729,-2065 14473,-3528 1761,-543 3511,-1126 5247,-1747 4030,-1442 7990,-3094 11868,-4951 1495,-716 2979,-1463 4449,-2240z"/>
 </g>
</svg>
