<?xml version="1.0" encoding="UTF-8"?>
<!DOCTYPE svg PUBLIC "-//W3C//DTD SVG 1.1//EN" "http://www.w3.org/Graphics/SVG/1.1/DTD/svg11.dtd">
<!-- Creator: CorelDRAW X7 -->
<svg xmlns="http://www.w3.org/2000/svg" xml:space="preserve" width="1.14298cm" height="1.14298cm" version="1.1" shape-rendering="geometricPrecision" text-rendering="geometricPrecision" image-rendering="optimizeQuality" fill-rule="evenodd" clip-rule="evenodd"
viewBox="0 0 114298 114298"
 xmlns:xlink="http://www.w3.org/1999/xlink">
 <g id="Слой_x0020_1">
  <metadata id="CorelCorpID_0Corel-Layer"/>
  <g id="_1715859072">
   <path fill="#292525" d="M21548 93662l73889 0c470,0 873,-235 1104,-644 231,-409 226,-875 -16,-1278l-4594 -7650c-4025,-6712 -6153,-14398 -6153,-22228l0 -11401c0,-15048 -12237,-27285 -27285,-27285 -15048,0 -27285,12237 -27285,27285l0 11401c0,7830 -2128,15516 -6157,22228l-4591 7650c-242,403 -247,869 -16,1278 231,409 634,644 1104,644zm80146 4548l-86402 0c-819,0 -1578,-441 -1983,-1155 -194,-344 -292,-727 -293,-1110 -1,-408 107,-817 325,-1178l7812 -13015c3602,-6007 5507,-12883 5507,-19890l0 -11401c0,-17549 14284,-31833 31833,-31833 17549,0 31833,14284 31833,31833l0 11401c0,7007 1905,13883 5507,19890l7812 13015c215,356 323,757 325,1159l0 24c-2,381 -100,763 -293,1105 -404,714 -1164,1155 -1983,1155z"/>
   <path fill="#292525" d="M65314 23176c-1255,0 -2273,-1019 -2273,-2274l0 -9095c0,-2510 -2038,-4547 -4548,-4547 -2510,0 -4547,2037 -4547,4547l0 9095c0,1255 -1019,2274 -2274,2274 -1255,0 -2274,-1019 -2274,-2274l0 -9095c0,-5016 4079,-9095 9095,-9095 5016,0 9095,4079 9095,9095l0 9095c0,1255 -1019,2274 -2274,2274z"/>
   <path fill="#292525" d="M58493 111852c-6271,0 -11369,-5098 -11369,-11368 0,-2011 532,-3980 1537,-5699 634,-1076 2005,-1431 3097,-824 13,7 23,13 36,21 1068,641 1425,2024 796,3105 -591,1004 -914,2210 -914,3397 0,3760 3061,6821 6822,6821 3760,0 6821,-3061 6821,-6821 0,-1187 -323,-2393 -914,-3397 -637,-1083 -273,-2479 814,-3116 1087,-622 2474,-268 3115,814 1005,1719 1537,3688 1537,5699 -9,6270 -5107,11368 -11378,11368z"/>
  </g>
 </g>
</svg>
