<?xml version="1.0" encoding="UTF-8"?>
<!DOCTYPE svg PUBLIC "-//W3C//DTD SVG 1.1//EN" "http://www.w3.org/Graphics/SVG/1.1/DTD/svg11.dtd">
<!-- Creator: CorelDRAW X7 -->
<svg xmlns="http://www.w3.org/2000/svg" xml:space="preserve" width="1.14298cm" height="1.14298cm" version="1.1" shape-rendering="geometricPrecision" text-rendering="geometricPrecision" image-rendering="optimizeQuality" fill-rule="evenodd" clip-rule="evenodd"
viewBox="0 0 114298 114298"
 xmlns:xlink="http://www.w3.org/1999/xlink">
 <g id="Слой_x0020_1">
  <metadata id="CorelCorpID_0Corel-Layer"/>
  <path fill="black" d="M4978 27896l0 55935c0,3497 2852,6349 6349,6349l90841 0c3497,0 6349,-2852 6349,-6349l0 -55935c0,-3497 -2852,-6349 -6349,-6349l-90841 0c-3497,0 -6349,2852 -6349,6349zm47577 32355l-38274 -33615 84932 0 -38279 33615c-2411,2117 -5968,2117 -8379,0zm-12727 -4399l-29761 26137 0 -52276 29761 26139zm3860 3385l8867 7787c2411,2117 5968,2117 8379,0l8867 -7787 29438 25852 -84983 0 29432 -25852zm29972 -3385l29761 -26139 0 52276 -29761 -26137z"/>
 </g>
</svg>
