<?xml version="1.0" encoding="UTF-8"?>
<!DOCTYPE svg PUBLIC "-//W3C//DTD SVG 1.1//EN" "http://www.w3.org/Graphics/SVG/1.1/DTD/svg11.dtd">
<!-- Creator: CorelDRAW X7 -->
<svg xmlns="http://www.w3.org/2000/svg" xml:space="preserve" width="1.14298cm" height="1.14298cm" version="1.1" shape-rendering="geometricPrecision" text-rendering="geometricPrecision" image-rendering="optimizeQuality" fill-rule="evenodd" clip-rule="evenodd"
viewBox="0 0 114298 114298"
 xmlns:xlink="http://www.w3.org/1999/xlink">
 <g id="Слой_x0020_1">
  <metadata id="CorelCorpID_0Corel-Layer"/>
  <path fill="#1B1C1D" d="M110506 105878l-32650 -32650c5844,-7060 9357,-16122 9357,-26003 0,-22537 -18270,-40808 -40807,-40808 -22537,0 -40807,18271 -40807,40808 0,22536 18270,40807 40807,40807 10134,0 19405,-3695 26541,-9810l32607 32608c1187,1187 3123,1187 4310,0l642 -642c1187,-1187 1187,-3123 0,-4310zm-29900 -58653c0,18888 -15312,34199 -34200,34199 -18888,0 -34200,-15311 -34200,-34199 0,-18888 15312,-34200 34200,-34200 18888,0 34200,15312 34200,34200z"/>
  <path fill="black" d="M64861 39130l-8940 -1274c-1023,-146 -1838,-734 -2298,-1659l-4031 -8100c-529,-1064 -1549,-1694 -2738,-1690 -1188,4 -2204,641 -2726,1708l-4300 8785c-227,478 -683,802 -1209,886l-9693 1440c-1175,174 -2089,949 -2453,2080 -364,1130 -74,2293 778,3120l7022 6816c383,372 550,898 467,1424l-1623 9656c-197,1172 258,2280 1221,2975 964,696 2160,778 3210,222l7980 -4227c914,-484 1919,-487 2836,-8l8019 4185c1054,550 2249,460 3209,-241 958,-701 1407,-1813 1203,-2983l-1681 -9638c-96,-527 72,-1066 454,-1437l6994 -6847c849,-831 1134,-1996 764,-3126 -370,-1129 -1288,-1899 -2465,-2067z"/>
 </g>
</svg>
