<?xml version="1.0" encoding="UTF-8"?>
<!DOCTYPE svg PUBLIC "-//W3C//DTD SVG 1.1//EN" "http://www.w3.org/Graphics/SVG/1.1/DTD/svg11.dtd">
<!-- Creator: CorelDRAW X7 -->
<svg xmlns="http://www.w3.org/2000/svg" xml:space="preserve" width="1.14298cm" height="1.14298cm" version="1.1" shape-rendering="geometricPrecision" text-rendering="geometricPrecision" image-rendering="optimizeQuality" fill-rule="evenodd" clip-rule="evenodd"
viewBox="0 0 114298 114298"
 xmlns:xlink="http://www.w3.org/1999/xlink">
 <g id="Слой_x0020_1">
  <metadata id="CorelCorpID_0Corel-Layer"/>
  <path fill="#1B1C1D" d="M109094 105170l-32609 -32608c5837,-7052 9346,-16104 9346,-25973 0,-22511 -18248,-40759 -40758,-40759 -22511,0 -40759,18248 -40759,40759 0,22509 18248,40759 40759,40759 10122,0 19382,-3691 26509,-9798l32566 32567c1187,1186 3122,1187 4309,0l637 -637c1187,-1187 1187,-3123 0,-4310zm-29863 -58581c0,18865 -15293,34159 -34158,34159 -18866,0 -34159,-15294 -34159,-34159 0,-18866 15293,-34159 34159,-34159 18865,0 34158,15293 34158,34159z"/>
 </g>
</svg>
