<?xml version="1.0" encoding="UTF-8"?>
<!DOCTYPE svg PUBLIC "-//W3C//DTD SVG 1.1//EN" "http://www.w3.org/Graphics/SVG/1.1/DTD/svg11.dtd">
<!-- Creator: CorelDRAW X7 -->
<svg xmlns="http://www.w3.org/2000/svg" xml:space="preserve" width="1.14298cm" height="1.14298cm" version="1.1" shape-rendering="geometricPrecision" text-rendering="geometricPrecision" image-rendering="optimizeQuality" fill-rule="evenodd" clip-rule="evenodd"
viewBox="0 0 114298 114298"
 xmlns:xlink="http://www.w3.org/1999/xlink">
 <g id="Слой_x0020_1">
  <metadata id="CorelCorpID_0Corel-Layer"/>
  <path fill="black" d="M62919 108845l-11090 0c-1612,0 -2205,6 -7330,-12595 -402,-990 -1109,-1695 -2100,-2096l-1393 -564c-998,-404 -2006,-385 -2988,56 -10602,4756 -11924,4756 -12374,4756l-917 0 -681 -579c-71,-60 -129,-114 -196,-179l-7766 -7598c-1150,-1150 -1577,-1578 3881,-14016 437,-995 444,-2014 21,-3015l-502 -1186c-428,-1013 -1178,-1724 -2212,-2098 -12881,-4663 -12881,-5276 -12881,-6921l0 -10874c0,-1639 1,-2199 12900,-7224 997,-388 1713,-1085 2128,-2071l500 -1188c435,-1033 413,-2090 -65,-3104 -5699,-12085 -5294,-12627 -4080,-13763 22,-21 41,-39 63,-60l8423 -8263 833 -21c298,-8 552,14 844,72 1730,345 5760,1837 12016,4451 964,403 1936,407 2903,14l1375 -559c1020,-415 1741,-1156 2129,-2186 4740,-12582 5400,-12582 7000,-12582l11091 0c1595,0 2197,1 7327,12601 404,992 1113,1698 2106,2098l1390 559c997,401 2002,382 2983,-59 10592,-4756 11922,-4756 12386,-4756l908 -1 684 581c70,59 127,112 192,176l7747 7562c15,14 27,26 42,41 1136,1143 1515,1642 -3911,14014 -436,994 -444,2011 -22,3011l510 1209c429,1017 1182,1730 2220,2104 12892,4638 12893,5250 12893,6894l0 10866c0,1603 0,2204 -12912,7232 -1000,389 -1719,1089 -2133,2079l-499 1194c-431,1031 -408,2083 69,3094 5675,12037 5280,12570 4143,13727 -19,19 -35,34 -54,53l-8492 8312 -848 20c-295,7 -548,-15 -838,-73 -1726,-345 -5743,-1839 -11992,-4458 -962,-403 -1933,-410 -2900,-19l-1399 566c-1022,413 -1746,1154 -2136,2186 -4750,12579 -5362,12580 -6996,12580zm-7539 -4488l3882 0c1562,0 2896,-883 3506,-2320 1038,-2445 2424,-5952 3637,-9189 388,-1037 1115,-1782 2142,-2196l4954 -1998c972,-392 1948,-383 2913,27 3364,1428 7072,2930 9640,3891 1415,529 2914,213 3995,-842l2639 -2577c1144,-1117 1470,-2735 847,-4208 -1029,-2433 -2554,-5800 -4015,-8868 -484,-1015 -508,-2075 -73,-3112l2013 -4799c415,-990 1135,-1689 2135,-2077 3372,-1309 7017,-2788 9525,-3879 1421,-618 2289,-1943 2289,-3492l0 -3490c0,-1583 -910,-2935 -2377,-3530 -2499,-1014 -6079,-2357 -9384,-3536 -1043,-372 -1800,-1088 -2230,-2109l-2027 -4814c-422,-1001 -413,-2020 25,-3014 1414,-3209 2905,-6727 3889,-9228 573,-1457 237,-3026 -883,-4120l-2646 -2584c-1110,-1084 -2666,-1388 -4102,-801 -2472,1009 -6049,2565 -9309,4042 -983,445 -1994,467 -2995,63l-4936 -1989c-996,-402 -1706,-1113 -2108,-2109 -1329,-3298 -2845,-6873 -3964,-9324 -634,-1388 -1939,-2226 -3465,-2226l-3883 0c-1562,0 -2896,883 -3506,2321 -1035,2441 -2412,5940 -3623,9178 -387,1034 -1110,1777 -2133,2193l-4924 2002c-971,395 -1947,388 -2913,-19 -3381,-1423 -7104,-2925 -9679,-3887 -1417,-530 -2918,-212 -3999,847l-2634 2581c-1140,1117 -1463,2732 -842,4203 1028,2432 2557,5803 4008,8873 480,1014 502,2072 67,3106l-2018 4796c-416,989 -1136,1688 -2136,2075 -3363,1301 -7002,2778 -9506,3869 -1420,619 -2288,1943 -2288,3492l0 3504c0,1581 908,2930 2372,3527 2496,1017 6072,2362 9376,3549 1037,373 1789,1085 2219,2100l2030 4795c425,1004 418,2027 -23,3024 -1414,3201 -2898,6714 -3879,9209 -572,1455 -237,3022 880,4116l2648 2594c1110,1087 2670,1393 4108,804 2469,-1009 6037,-2563 9294,-4038 987,-447 2001,-467 3005,-59l4932 2003c989,402 1695,1107 2096,2097 1339,3302 2853,6872 3968,9322 633,1390 1939,2231 3466,2231zm1764 -29117c-10164,0 -18449,-8112 -18449,-18087 0,-9975 8276,-18090 18449,-18090 10164,0 18430,8115 18430,18090 0,9975 -8266,18087 -18430,18087zm0 -31687c-7700,0 -13949,6098 -13949,13600 0,7493 6249,13600 13949,13600 7690,0 13942,-6107 13942,-13600 0,-7502 -6252,-13600 -13942,-13600z"/>
 </g>
</svg>
