<?xml version="1.0" encoding="UTF-8"?>
<!DOCTYPE svg PUBLIC "-//W3C//DTD SVG 1.1//EN" "http://www.w3.org/Graphics/SVG/1.1/DTD/svg11.dtd">
<!-- Creator: CorelDRAW X7 -->
<svg xmlns="http://www.w3.org/2000/svg" xml:space="preserve" width="1.14298cm" height="1.14298cm" version="1.1" shape-rendering="geometricPrecision" text-rendering="geometricPrecision" image-rendering="optimizeQuality" fill-rule="evenodd" clip-rule="evenodd"
viewBox="0 0 114298 114298"
 xmlns:xlink="http://www.w3.org/1999/xlink">
 <g id="Слой_x0020_1">
  <metadata id="CorelCorpID_0Corel-Layer"/>
  <path fill="black" d="M109115 45150c-338,-1040 -1229,-1782 -2307,-1957 -9,-1 -16,-3 -25,-4l-31690 -4503c-427,-60 -766,-305 -958,-691l-14266 -28679c-489,-979 -1490,-1596 -2576,-1596 -1086,0 -2086,617 -2576,1617l-14078 28762c-189,387 -527,634 -953,697l-31703 4714c-1086,171 -1980,916 -2321,1959 -90,277 -136,562 -139,844l0 55c6,762 319,1504 885,2039l23004 22296c309,300 440,697 368,1122l-5317 31577c-193,1086 255,2172 1149,2810 490,362 1086,554 1682,554 468,0 915,-106 1342,-341l28301 -14995c381,-202 800,-204 1182,-4l28374 14822c9,5 16,9 25,13 421,208 864,313 1306,313 1576,0 2875,-1299 2875,-2874 0,-216 -18,-416 -71,-612 -10,-39 -18,-72 -25,-112l-5474 -31322c-74,-424 54,-822 361,-1124l22848 -22410c8,-8 15,-14 23,-22 821,-767 1093,-1911 754,-2948zm-29168 22802c-682,660 -979,1618 -810,2556l4434 25422c85,487 -101,951 -501,1243 -399,292 -897,329 -1336,100l-22887 -11947c-824,-444 -1815,-425 -2663,-10 -12,6 -23,12 -35,18l-22794 12074c-437,231 -935,197 -1336,-93 -402,-289 -591,-751 -509,-1239l4279 -25462c149,-937 -149,-1874 -831,-2534l-18511 -17970c-355,-345 -475,-828 -324,-1299 152,-471 533,-793 1022,-866l25543 -3796c936,-149 1745,-724 2150,-1576l11345 -23177c218,-444 640,-709 1135,-711 495,-2 920,261 1141,704l11503 23120c423,848 1226,1420 2155,1573 10,2 18,4 28,5l25544 3638c490,70 873,390 1027,861 155,470 36,956 -318,1302l-18451 18064z"/>
 </g>
</svg>
