<?xml version="1.0" encoding="UTF-8"?>
<!DOCTYPE svg PUBLIC "-//W3C//DTD SVG 1.1//EN" "http://www.w3.org/Graphics/SVG/1.1/DTD/svg11.dtd">
<!-- Creator: CorelDRAW X7 -->
<svg xmlns="http://www.w3.org/2000/svg" xml:space="preserve" width="2.53998cm" height="2.53998cm" version="1.1" shape-rendering="geometricPrecision" text-rendering="geometricPrecision" image-rendering="optimizeQuality" fill-rule="evenodd" clip-rule="evenodd"
viewBox="0 0 253998 253998"
 xmlns:xlink="http://www.w3.org/1999/xlink">
 <g id="Слой_x0020_1">
  <metadata id="CorelCorpID_0Corel-Layer"/>
  <path fill="none" fill-opacity="0.619608" stroke="white" stroke-width="5079" stroke-opacity="0.619608" d="M128269 15892c62064,0 112377,50313 112377,112377 0,62064 -50313,112377 -112377,112377 -62064,0 -112377,-50313 -112377,-112377 0,-62064 50313,-112377 112377,-112377z"/>
  <path fill="#FDFEFF" d="M107981 132437c-3278,-28946 34770,-30605 38201,-6821 1736,12032 -5988,21252 -15891,22948 -12120,2076 -21111,-5542 -22310,-16127zm39334 -24837c-3630,-3215 -7555,-6387 -14014,-7952 -32892,-7967 -52639,39994 -18956,56205 18131,8727 31310,-4814 33049,-5324 118,3996 853,7139 2655,9484 1310,1705 4573,3717 7889,4202 21305,3115 38069,-53585 507,-77653 -10334,-6621 -24783,-10531 -39734,-7776 -24893,4587 -45845,25569 -42555,55401 5454,49452 67434,50067 71861,37843 1361,-3756 -1018,-7147 -4485,-7263 -2254,-75 -7253,1981 -10445,2414 -27913,3791 -53029,-21359 -43810,-50151 9413,-29396 42568,-34255 63678,-20243 9472,6287 16946,16731 16183,33033 -321,6845 -4117,20774 -8045,22429 -5719,2410 -3892,-8724 -3892,-14566 0,-8218 -26,-16438 -9,-24656 8,-4167 464,-7883 -2776,-9348 -5503,-2487 -6993,3718 -7101,3921z"/>
 </g>
</svg>
