<?xml version="1.0" encoding="UTF-8"?>
<!DOCTYPE svg PUBLIC "-//W3C//DTD SVG 1.1//EN" "http://www.w3.org/Graphics/SVG/1.1/DTD/svg11.dtd">
<!-- Creator: CorelDRAW X7 -->
<svg xmlns="http://www.w3.org/2000/svg" xml:space="preserve" width="0.60958cm" height="0.50798cm" version="1.1" shape-rendering="geometricPrecision" text-rendering="geometricPrecision" image-rendering="optimizeQuality" fill-rule="evenodd" clip-rule="evenodd"
viewBox="0 0 60958 50798"
 xmlns:xlink="http://www.w3.org/1999/xlink">
 <g id="Слой_x0020_1">
  <metadata id="CorelCorpID_0Corel-Layer"/>
  <path fill="#FEFEFE" d="M18901 38914l-13009 -13076c-1280,-1286 -3368,-1273 -4663,-2l-106 104c-650,636 -972,1426 -972,2336 0,910 325,1693 968,2337l17782 17850c1284,1286 3381,1286 4666,2l36277 -36275c1284,-1284 1284,-3378 3,-4664l-104 -105c-642,-646 -1425,-970 -2336,-971 -910,-1 -1694,323 -2337,966l-31503 31498c-1285,1284 -3386,1288 -4666,0z"/>
 </g>
</svg>
