<?xml version="1.0" encoding="UTF-8"?>
<!DOCTYPE svg PUBLIC "-//W3C//DTD SVG 1.1//EN" "http://www.w3.org/Graphics/SVG/1.1/DTD/svg11.dtd">
<!-- Creator: CorelDRAW X7 -->
<svg xmlns="http://www.w3.org/2000/svg" xml:space="preserve" width="13.716cm" height="8.88998cm" version="1.1" shape-rendering="geometricPrecision" text-rendering="geometricPrecision" image-rendering="optimizeQuality" fill-rule="evenodd" clip-rule="evenodd"
viewBox="0 0 1371598 888998"
 xmlns:xlink="http://www.w3.org/1999/xlink">
 <defs>
    <linearGradient id="id0" gradientUnits="userSpaceOnUse" x1="928748" y1="634832" x2="784632" y2="49891.7">
     <stop offset="0" stop-opacity="1" stop-color="#3ECFB9"/>
     <stop offset="0.109804" stop-opacity="1" stop-color="#49D4C3"/>
     <stop offset="0.639216" stop-opacity="1" stop-color="#3488D5"/>
     <stop offset="1" stop-opacity="1" stop-color="#3386D6"/>
    </linearGradient>
 </defs>
 <g id="Слой_x0020_1">
  <metadata id="CorelCorpID_0Corel-Layer"/>
  <g id="_1190116864">
   <g>
    <polygon fill="white" points="863815,362635 863815,305749 792181,305749 792181,390997 "/>
    <path fill="white" d="M922943 550810c-40081,0 -59128,-21808 -59128,-73138l0 -5480 -70641 27969c6927,77876 50084,118853 128702,118853 88693,0 132535,-50308 132535,-145493l0 -167772 -71407 0 0 174566c0,49588 -20735,70495 -60061,70495z"/>
   </g>
   <path fill="#1F77AD" d="M997495 749652c-2490,-1334 -5419,-2795 -7994,-1630 -1203,544 -2093,1579 -2946,2590 -13649,16157 -21642,33734 -38189,46750 -5685,4476 -63229,68142 -67528,61804 6482,9557 16957,21724 28374,24229 16419,4103 35856,-362 52671,-340 229,3 487,-12 632,-185 185,-224 75,-558 -51,-816 -2505,-5190 -7962,-8456 -13583,-9731 -8928,-2027 -22476,-2747 -30417,2326 -12160,-10662 -3886,-14681 3881,-24195 2637,3581 5278,7166 7918,10751 30209,-23812 58014,-50669 82854,-80038 4554,-5385 14857,-831 16636,-11968 1765,-11076 -24340,-15308 -32258,-19547z"/>
   <path fill="#1F77AD" d="M1110656 708742c2861,-5784 6785,-11292 10618,-16119 5256,-6618 17120,-24474 25995,-24904 2130,-100 4202,643 6175,1455 12859,5306 24019,13916 35616,21599 13315,8817 27550,17051 42363,23105 13191,5391 28846,12035 38161,23274 12439,15027 -24050,48075 -32734,57627 -23781,26155 -47227,53132 -71658,78926 6474,-6835 14105,-1577 24305,-1394 14776,261 37225,-10663 39065,14545 -27065,1471 -59751,1961 -86470,-2583 5338,-3128 10108,-7220 14011,-12022 -6552,359 -13152,-132 -19575,-1464 25568,-37246 51421,-73847 74514,-112915 -22313,-10756 -42612,-18499 -65926,-26942 -12617,-4702 -25088,-9419 -37701,-13794 758,-2832 1878,-5643 3241,-8394z"/>
   <path fill="#145484" d="M1124727 562760c11058,-12786 25903,-27534 27574,-45305 1590,-16887 -10297,-32308 -25098,-39034 -11471,-5211 -17390,2474 -28689,3302 -20966,1517 -36714,-16098 -56887,-18499 -18257,-2173 -27922,6464 -31393,23934 -1176,5925 -538,12481 3082,17318 4072,5434 11103,7770 17831,8674 6731,906 13643,701 20205,2489 5525,1504 11342,2537 16512,5076 1199,588 2442,1315 3009,2524 680,1438 214,3132 -267,4645 -5545,17419 -11415,34663 -17027,52035 -7650,23703 -13642,47950 -17941,72484 19745,-13039 38087,-28202 54608,-45136 13102,-13432 22235,-30350 34481,-44507z"/>
   <path fill="#FFB0B0" d="M1069642 507891c21224,3002 36079,4589 55689,13583 1079,493 2360,987 3405,421 737,-402 1126,-1220 1466,-1989 2178,-4896 13140,-46753 16799,-47867 -6794,2067 -8534,11071 -14010,12808 -793,253 -1656,221 -2439,495 -885,311 -1592,981 -2206,1690 -2295,2646 -3667,6077 -3827,9573 -73,1561 -130,3516 -1561,4152 -516,229 -1102,216 -1665,198 -6647,-224 -14706,768 -21010,-1568 -5184,-1919 -10436,-6225 -15389,-8831 -10996,-5778 -24919,-14948 -36960,-17510 -13681,-2909 -25394,4252 -32089,15509 -824,1381 -1617,2886 -1570,4494 123,4022 4957,5891 8894,6716 15395,3216 30898,5929 46473,8126z"/>
   <path fill="#FFB0B0" d="M1142309 475161c-1743,5872 -2477,13800 -7446,17925 -6263,5193 -15865,3434 -22552,287 -598,-369 3207,-11002 3150,-12632 23,629 -21835,3779 -23244,1630 -551,-834 -391,-1933 -208,-2914 1063,-5788 2128,-11576 3191,-17366 -3868,2754 -8991,3660 -13571,2398 6651,-5851 12681,-12929 14988,-21479 2486,-9206 1460,-19780 7169,-28192 5846,-8617 19575,-8953 28214,-3984 -2298,-2650 -5678,-3818 -9218,-3544 2901,-1464 6096,-2191 9177,-714 2592,1236 4059,5347 7024,5601 3078,269 7159,-2287 9891,485 3172,3214 447,11833 642,15817 243,4948 -585,10040 -1168,14994 -1255,10687 -2970,21355 -6039,31688z"/>
   <path fill="#FEFEFE" d="M1098879 412555c601,97 727,-25 1498,-51 -497,7 -997,39 -1498,51zm42134 31751c-595,1753 -831,3629 -664,5476 -476,-5293 -3944,-12617 -7858,-16267 -4514,-4208 -3579,-8208 -1854,-13694 -73,237 -20387,1297 -22433,1842 2402,-1489 4693,-3915 7179,-5139 -6414,3156 -17297,6430 -24277,3226 -2074,-955 -3673,-2886 -4224,-5102 3717,2480 9127,1419 11809,-2087 -2972,91 -5945,256 -8913,388 3675,-5304 12934,-8293 18914,-9838 7229,-1867 16541,-2462 23311,1429 -2301,-2651 -5681,-3818 -9221,-3544 2901,-1464 6096,-2191 9177,-718 2592,1240 4059,5347 7021,5605 6259,544 16141,6877 18514,13631 790,2246 756,4698 585,7074 -462,6392 -1308,13813 -2614,20044 -479,2281 -9533,13517 -10314,11242 -723,-2099 -1199,-4284 -1416,-6493 1841,-585 3622,-1356 5306,-2301 988,-556 1999,-1227 2455,-2266 132,-298 208,-606 236,-921 110,-1241 -529,-2552 -1476,-3419 -1187,-1085 -2757,-1626 -4281,-2139 -783,-268 -1664,-526 -2406,-160 -441,216 -756,626 -1033,1038 -2090,3121 -2562,8280 -1879,11890 -1709,264 -3175,-1420 -3519,-3116 -342,-1696 48,-3449 26,-5183 -60,-4796 -3219,-8926 -6231,-12661 462,-693 1453,-970 2209,-620l7871 12783z"/>
   <path fill="#4F4742" d="M1113183 463406c-4718,3739 -10307,5614 -16333,5369 -1008,-41 -1014,-1614 0,-1574 5592,227 10825,-1422 15222,-4905 784,-624 1904,481 1111,1110l0 0z"/>
   <path fill="#4F4742" d="M1106086 435262c702,2532 1401,5070 2099,7606 674,2442 -3118,3487 -3792,1045 -702,-2537 -1401,-5069 -2099,-7607 -674,-2442 3119,-3487 3792,-1044l0 0z"/>
   <path fill="#4F4742" d="M1121528 437893c696,2797 1395,5596 2094,8393 614,2454 -3178,3503 -3792,1045 -700,-2799 -1398,-5596 -2097,-8394 -610,-2458 3183,-3506 3796,-1044l-1 0z"/>
   <path fill="#145484" d="M339266 528768c6219,-2193 13218,-2892 21137,-1724 26357,3890 53028,4790 79565,6829 21010,1611 42372,1615 63222,3557 2433,226 4101,925 4384,3345 -7383,3663 -16232,5145 -24412,6427 -15056,2356 -30294,3282 -45504,4203 -24840,1508 -49508,1858 -74102,5203 -16919,2300 -38288,10540 -54568,2694 7437,-14515 17098,-25882 30278,-30534z"/>
   <path fill="#FEFEFE" d="M1010426 643361c109677,-44979 162124,-170353 117146,-280027 -44983,-109677 -170354,-162127 -280031,-117145 -109677,44979 -162127,170353 -117145,280031 44979,109677 170353,162123 280030,117141zm-434374 -53844c-1511,-3685 -2939,-7380 -4324,-11081l-60878 3714c-8003,-24419 -13812,-49379 -17425,-74580l56040 -23673c-1236,-11937 -1907,-23862 -2007,-35742l-58304 -17281c808,-25526 3846,-50983 9060,-76059l60828 -3085c2920,-11565 6379,-22979 10354,-34202l-49023 -36289c9406,-23547 20916,-46427 34524,-68349l58266 17920c6665,-9861 13800,-19428 21397,-28662l-33567 -50731c8459,-9435 17366,-18606 26776,-27439 9410,-8837 19122,-17146 29070,-24995l48515 36688c9602,-6935 19592,-13462 29955,-19552l-14222 -59273c22738,-12204 46294,-22253 70389,-30158l33116 51187c11560,-3304 23173,-6052 34808,-8223l6898 -60450c25356,-3625 50952,-5058 76481,-4258l13583 59301c11930,869 23783,2294 35516,4267l27175 -54480c24925,5187 49469,12558 73333,22081l-7533 60506c10876,4865 21522,10245 31908,16108l44233 -41958c21435,13312 41945,28636 61271,45951l-27701 54140c8536,8271 16717,16969 24505,26090l55769 -24239c16065,20377 30066,41812 42007,64040l-44680 41523c3442,7112 6710,14354 9749,21762 1510,3683 2937,7378 4325,11078l60876 -3710c8004,24415 13813,49375 17425,74576l-56038 23673c1234,11937 1904,23862 2006,35742l58302 17281c-806,25526 -3846,50983 -9060,76060l-60827 3084c-2919,11568 -6378,22980 -10354,34203l49023 36289c-9406,23546 -20917,46426 -34526,68349l-58263 -17920c-6667,9860 -13800,19428 -21396,28664l33564 50728c-8458,9436 -17364,18607 -26773,27440 -9410,8837 -19122,17146 -29071,24995l-48517 -36686c-9602,6933 -19590,13463 -29951,19550l14218 59272c-22734,12204 -46294,22254 -70385,30159l-33117 -51188c-11559,3305 -23172,6052 -34810,8223l-6899 60451c-25353,3629 -50948,5057 -76477,4258l-13587 -59302c-11931,-869 -23779,-2294 -35515,-4267l-27175 54483c-24925,-5190 -49466,-12557 -73334,-22083l7534 -60507c-10873,-4865 -21520,-10244 -31909,-16107l-44229 41960c-21435,-13314 -41948,-28638 -61274,-45953l27704 -54141c-8539,-8270 -16718,-16968 -24507,-26086l-55770 24236c-16067,-20375 -30064,-41813 -42005,-64040l44680 -41523c-3443,-7110 -6713,-14354 -9750,-21760z"/>
   <g>
    <path fill="white" fill-rule="nonzero" d="M578185 89017l874 -828 9144 -8183 9377 -7922 9605 -7653 3850 4978 -9463 7541 -9239 7806 -9012 8063 -874 828 -4262 -4630zm-51077 56213l2202 -2912 7662 -9581 7920 -9366 6552 -7335 4636 4258 -6438 7205 -7808 9236 -7556 9447 -2202 2912 -4968 -3864zm-40976 63936l2835 -5351 6033 -10688 6316 -10523 3983 -6252 5262 3452 -3893 6110 -6228 10379 -5951 10542 -2835 5351 -5522 -3020zm-29937 69785l2716 -7997 4258 -11509 4564 -11391 1993 -4614 5744 2572 -1927 4460 -4500 11235 -4200 11351 -2716 7997 -5932 -2104zm-17938 73797l1773 -10739 2333 -12041 2664 -11972 636 -2530 6082 1618 -594 2362 -2626 11804 -2301 11871 -1773 10739 -6194 -1112zm-4782 50222l616 -12266 14 -168 6266 586 0 -12 -606 12084 -6290 -224z"/>
   </g>
   <path fill="#FEFEFE" d="M266949 787839c-9476,-4406 -17618,-11179 -25643,-17872 -5608,-4680 -11858,-9074 -17038,-14216 -5707,-5665 -6946,-11178 -11820,-16362 -19117,-20330 -45858,-36232 -53272,-63137 -3736,-13551 -1646,-28604 5634,-40627 1504,-2482 3401,-4977 6155,-5897 9639,-3214 34644,26880 41810,34968 14023,15823 25649,35606 38841,52418 14716,18753 21291,40443 34660,59540 5227,7471 10470,17536 5309,25055 -5936,8650 -21420,13513 -30436,18756 -11774,6842 -24035,14530 -31540,26241 -14433,22521 10568,34866 29989,33850 -16231,13734 -39462,1476 -42764,-17932 -2200,6416 -3301,13281 -3647,20054 -3739,-762 -7475,-1527 -11210,-2292 -1011,-1230 -28,-3039 944,-4302 22203,-28808 41394,-59653 64028,-88245z"/>
   <path fill="#FEFEFE" d="M95327 795968c14650,-7710 27912,-9810 39575,-22842 24075,-26901 50615,-51518 78449,-74483 -18934,-4377 -35745,-12733 -53048,-21144 -86,12294 -8394,22750 -15585,32723 -7163,9932 -13589,20399 -19209,31279 -4439,8595 -7333,22464 -15909,27815 -7287,4546 -17039,4896 -24913,9809 -11402,7112 -22291,15172 -32686,23682 -8069,6608 -16015,13426 -22627,21535 -6266,7683 -15119,12066 -22808,18127 -922,728 -1929,1646 -1878,2821 37,840 620,1542 1145,2196 6627,8267 7245,18597 4988,28438 7368,-5615 5287,-18726 4762,-26845 4503,12191 12063,21038 22171,28944 10040,7852 28079,6262 38030,-963 -11679,-6244 -31370,138 -40570,-9832 -30388,-32950 42144,-61800 60113,-71260z"/>
   <path fill="#FFB0B0" d="M287714 512095c-504,-3984 5601,-16607 8050,-20170 3725,-5410 9249,-8298 15679,-9239 8761,-1285 21000,-6641 29514,-5754 6938,724 10005,8750 16107,11252 7426,3046 15307,2725 23093,2958 1130,34 2329,142 3229,828 1529,1160 1507,3646 337,5170 -1577,2058 -4655,2676 -7109,2810 -133,4035 -1376,10137 -3428,13719 -3732,6514 -5819,12421 -8947,18984 -476,1000 -991,2048 -1910,2668 -935,632 -2124,711 -3255,774 -9650,538 -19713,1520 -27861,6712 -4337,2761 -24056,24404 -24837,6905 -227,-5079 4343,-11927 4265,-17926 -130,-10275 -4790,-10605 -13948,-12500 -4014,-834 -8463,-3125 -8979,-7191z"/>
   <path fill="#FEFEFE" d="M304834 471239c6850,-7367 16041,-10313 27723,-10842 7049,-321 29611,-480 27842,11456 -888,5970 -16915,8557 -21362,8868 -3909,274 -7729,1719 -10842,4105 1837,-1747 4384,-2726 6918,-2663 1191,31 2571,438 2986,1555 384,1032 -242,2149 -916,3044 -5099,6743 -11276,9179 -18694,6275 -7839,-3067 -11990,-4936 -15653,5176 -1291,3560 -2363,7713 -425,10971 1352,2275 3953,3582 6568,3997 2614,416 5284,60 7908,-296 1464,2958 -673,6587 -3492,8305 -6550,3990 -12617,5769 -20051,3792 -25734,-6854 -48296,-28817 -50590,-55351 -633,-7298 315,-14955 4136,-21206 3820,-6250 10891,-10800 18196,-10259 8252,611 8649,7667 14388,10411 901,-5806 -3613,-12343 -339,-17224 1885,-2814 5878,-3667 9095,-2599 3213,1063 5705,3678 7484,6564 7124,11566 7005,35362 1702,47720 2065,-4816 4536,-8699 7418,-11799z"/>
   <path fill="#1F77AD" d="M192910 618329c13211,-4636 27298,-7437 38152,-16116 27358,-21872 29055,-60551 70093,-65246 18323,-2099 17167,12692 16463,29422 -526,12557 -1234,27585 -5744,39497 -2439,6432 -6747,13397 -13601,14039 -13342,1246 -17231,-4328 -28001,5400 -10058,9085 -14215,21718 -21702,32655 -9152,13359 -27068,21038 -25447,39216 316,4440 -19991,-469 -22326,-1829 -20495,-11915 -44359,-41252 -28497,-64575 2762,-4066 7138,-6748 11591,-8837 2923,-1373 5947,-2550 9019,-3626z"/>
   <path fill="#FFB0B0" d="M495360 569876c-1740,1706 -4245,-1526 -6348,-626 -2055,884 -2045,11622 -906,11449 4598,-708 10584,-3553 13703,-7093 3546,-4032 5429,-7186 5664,-12731 283,-6643 -859,-13343 -3326,-19518 5558,-3663 11119,-7330 16677,-10993 991,-654 2105,-1542 2014,-2725 -164,-2103 -3323,-1952 -5234,-1070 -3947,1819 -7745,3949 -11355,6364 8012,-3724 16130,-7510 22909,-13175 -10283,1684 -20202,5546 -28919,11254 1827,-4277 6646,-6244 10854,-8229 4210,-1983 8740,-5205 8799,-9860 -8655,4292 -17305,8582 -25957,12872 -900,446 -1845,931 -2373,1787 -646,1048 -507,2383 -346,3603 1113,8495 2775,16910 3820,25413 352,2849 2263,9989 850,12557 -164,303 -340,539 -526,721z"/>
   <path fill="#4F4742" d="M347770 490862c1967,1967 3934,3934 5901,5901 888,887 346,2124 -683,2546 -1262,512 -2745,-79 -3647,-980 -1968,-1967 -3935,-3933 -5902,-5900 -887,-888 -346,-2124 684,-2546 1261,-513 2744,78 3648,979l-1 0z"/>
   <path fill="#4F4742" d="M371999 513546c-4129,-2332 -7993,-5039 -11619,-8094 -1161,-982 513,-2644 1669,-1668 3473,2926 7188,5491 11144,7726 1321,746 132,2785 -1193,2036l-1 0z"/>
   <path fill="#1F77AD" d="M492178 576372c-1182,3345 -2366,6691 -3553,10037 -38996,30 -77989,59 -116984,91 -19478,15 -38955,31 -58436,47 -15223,12 -55131,1475 -30341,-19724 6605,-5646 21574,-21182 30873,-21070 8047,101 10128,8076 16290,11204 9544,4847 15402,1052 25368,-104 12082,-1400 26977,1788 38748,4398 31637,7020 68925,3968 101327,5828 -1095,3096 -2193,6196 -3292,9293z"/>
   <path fill="url(#id0)" d="M928982 684409c-100476,0 -186509,-61838 -222118,-149529l-57305 22600c44621,110522 152914,188511 279423,188511 166358,0 301216,-134858 301216,-301216 0,-166357 -134858,-301216 -301216,-301216 -166358,0 -301216,134859 -301216,301216 0,3914 75,7812 222,11688l61693 -24425c6621,-126424 111227,-226897 239301,-226897 132347,0 239634,107288 239634,239634 0,132347 -107287,239634 -239634,239634z"/>
   <path fill="#39ABC8" d="M645471 546767l268785 -106008 0 -84728 -285524 113047c2159,27063 7898,53118 16739,77689z"/>
   <path fill="#145484" d="M618821 702414c19258,17680 38965,34873 59091,51556 8887,-13668 18316,-26983 28264,-39899 -22776,-7718 -45551,-15437 -68324,-23154 -1180,-399 -2445,-802 -3641,-465 -1215,342 -2093,1372 -2892,2347 -2977,3638 -5954,7273 -8929,10908l-3569 -1293z"/>
   <path fill="#FEFEFE" d="M489377 831203c15852,3279 35078,897 37895,23194 -778,-6146 -1552,-12293 -2329,-18442 3216,3962 6984,7480 11157,10417 -652,-5212 -7865,-6659 -10568,-11163 -1278,-2124 -1413,-4713 -1542,-7188 -1172,-22316 -4689,-44509 -10481,-66092 7553,-689 15396,-432 22799,822 4110,691 18193,7288 21466,5667 -749,371 -506,-1413 283,-1143 793,272 878,1341 818,2175 -2275,31935 -4551,63871 -6825,95805 -121,1696 -287,3509 -1363,4821 -985,1203 -2555,1753 -4082,2046 -5952,1126 -12003,-897 -17696,-2962 -21697,-7870 -42638,-19971 -64340,-26935 -758,5696 -3846,17494 -1407,22897 3676,8155 10250,2852 16718,2908 5091,42 9198,5911 7493,10710 -10417,-390 -20834,-780 -31254,-1170 -1571,-60 -3456,-321 -4101,-1753 -271,-605 -245,-1294 -217,-1958 353,-7651 2288,-14093 3216,-21536 850,-6863 -3172,-19109 1171,-25013 5041,-6851 17661,-2379 23859,809 2840,1463 6013,2398 9330,3084z"/>
   <path fill="#FFB0B0" d="M658293 658175c-2270,5979 3959,12928 9319,15452 1941,913 3870,-1113 5539,-2470 4260,-3469 10403,-3022 15833,-2172 8802,1375 16411,10798 25844,9655 6489,-786 8289,-13410 9702,-18558 406,-1486 343,-6237 1102,-7024 1399,-1452 8928,-1105 11011,-1345 831,-2486 -1841,-4575 -3824,-6293 -1957,-1693 -3531,-3975 -5321,-5848 -2313,-2417 -1590,-6452 97,-9338 2569,-4390 4756,-10665 1489,-15332 -3673,-5250 -12242,-9335 -18341,-10477 -5971,-1118 -12123,-217 -18084,944 -3890,758 -7899,1693 -11027,4123 -2519,1958 -4255,4724 -5939,7431 -4550,7310 -6011,13170 -6895,21551 -409,3871 -1111,8286 -3169,11669 -1722,2827 -5527,4422 -6984,7242 -135,261 -251,525 -352,790z"/>
   <path fill="#1F77AD" d="M740130 618291c1146,-1498 1967,-3323 2470,-5133 892,-3222 1058,-6784 -377,-9803 -1432,-3018 -4749,-5281 -8047,-4749 2420,-3012 1218,-7805 -1687,-10357 -2902,-2550 -6952,-3317 -10810,-3531 -8060,-447 -16224,1117 -23547,4513 -2436,1127 -4808,2467 -7421,3088 -7157,1702 -14729,-2231 -21913,-652 -4753,1042 -8869,4623 -10562,9184 -1696,4559 -916,9956 2002,13853 1227,1639 2813,3043 3672,4903 749,1621 878,3446 998,5228 393,5941 -126,13070 1243,18649 1926,-387 14219,-7710 14741,-7314 -2033,-1161 -4126,-2376 -5520,-4255 -1394,-1879 -1910,-4623 -585,-6552 5910,-8604 16160,7764 12434,11474 2675,-2662 5382,-5369 7248,-8645 3115,-5473 3531,-13161 -1605,-17680 4695,4131 10470,4614 16427,4289 1366,-76 13993,-1341 12664,-4082 2710,5590 7283,12164 13354,10851 1979,-428 3587,-1664 4821,-3279z"/>
   <path fill="#4F4742" d="M720492 629759c54,3157 -661,6122 -2146,8910 -632,1186 -5523,-696 -5158,-1385 1485,-2785 2200,-5750 2146,-8906 -10,-683 5133,-35 5158,1381l0 0z"/>
   <path fill="#4F4742" d="M723850 661916c-4097,-3893 -7490,-8371 -10121,-13374 -705,-1344 1331,-2540 2040,-1194 2542,4834 5790,9137 9749,12901 1105,1047 -566,2713 -1668,1668l0 -1z"/>
   <path fill="#1F77AD" d="M679463 657765c-226,-758 -544,-1504 -966,-2237 -5189,-8969 -19946,-7701 -28475,-6810 -39179,4094 -75496,22490 -103398,50067 -18780,18558 -68929,72849 -28756,93466 13983,7176 38156,5259 52942,2121 4732,-1004 65799,-16082 65353,-13576 -4684,26284 -11488,52192 -20328,77388 3386,777 6905,966 10354,556 -2210,7352 -5504,15512 -7150,22754 27093,2212 55291,145 82527,98 -2937,-1540 -3082,-5700 -5070,-8356 -3394,-4526 -10332,-3197 -15865,-2005 -10701,2301 -21895,2279 -32582,-66 4286,-29992 10124,-57759 25589,-84449 6278,-10839 13759,-21649 14946,-34118 -34996,623 -71096,-1432 -105306,-9719 14688,-7043 28532,-9558 43685,-15408 22807,-8808 38499,-23956 46297,-47516 2219,-6709 8362,-14970 6203,-22190z"/>
   <path fill="#FFB0B0" d="M843660 655458c5804,-2247 9171,3129 14481,4404 1359,326 2814,-60 4179,236 1369,296 2650,1897 1819,3024 -287,389 -749,602 -1205,753 -2502,824 -5312,216 -7588,-1108 -865,-505 -1772,-1130 -2763,-1011 -853,107 -1536,746 -2118,1379 -6930,7511 494,7997 7679,9979 7955,2200 16223,3582 24500,3085 1621,-96 3320,-243 4793,515 1473,762 2562,2795 1842,4419 -8206,1718 -16658,1957 -24929,708 -1230,-186 -31,-381 -375,947 3490,2838 7918,3947 12236,3979 4312,27 8447,-1197 12668,-1706 944,6205 1743,10319 -5675,10955 -6140,522 -12345,66 -18370,-1350 4400,2716 9259,4506 14242,5246 -1285,2854 -4819,3043 -7667,2750 -7279,-751 -14518,-2149 -21586,-4246 -4923,-1463 -8711,-2085 -12347,-5991 -1787,-1923 -3373,-4098 -5305,-5879 -2288,-2115 -5790,-2886 -7811,-4731 -3456,-3156 -3160,-3599 -195,-6407 2709,-2568 7030,-2445 9595,-5724 3191,-4082 3386,-10565 8330,-13460 545,-319 1067,-570 1570,-766z"/>
   <path fill="#1F77AD" d="M697194 669558c11456,5677 24034,14373 36142,17409 245,-3364 2149,-6759 5378,-7111 2986,-328 5919,1135 8922,1107 7600,-69 12875,-9252 20334,-10927 8393,-1888 16024,6168 24531,7220 11131,1378 21570,-5895 32293,-9167 1775,6508 3531,13019 5318,19521 -11704,5356 -37032,13410 -39549,14203 -21555,6804 -48689,17730 -70788,11597 -25754,-7144 -51087,-13105 -76400,-22546 -2344,-875 -4855,-1885 -6252,-4186 -1015,-1671 -1275,-3773 -1392,-5797 -3018,-52698 38386,-22766 61463,-11323z"/>
  </g>
 </g>
</svg>
