<?xml version="1.0" encoding="UTF-8"?>
<!DOCTYPE svg PUBLIC "-//W3C//DTD SVG 1.1//EN" "http://www.w3.org/Graphics/SVG/1.1/DTD/svg11.dtd">
<!-- Creator: CorelDRAW X7 -->
<svg xmlns="http://www.w3.org/2000/svg" xml:space="preserve" width="0.76198cm" height="0.76198cm" version="1.1" shape-rendering="geometricPrecision" text-rendering="geometricPrecision" image-rendering="optimizeQuality" fill-rule="evenodd" clip-rule="evenodd"
viewBox="0 0 76198 76198"
 xmlns:xlink="http://www.w3.org/1999/xlink">
 <g id="Слой_x0020_1">
  <metadata id="CorelCorpID_0Corel-Layer"/>
  <path fill="#A6A9AD" d="M75763 71168l-24198 -24198c4063,-4909 6505,-11210 6505,-18080 0,-15669 -12702,-28371 -28371,-28371 -15669,0 -28372,12702 -28372,28371 0,15669 12703,28372 28372,28372 7046,0 13492,-2569 18452,-6820l24169 24169 3443 -3443zm-22287 -42278c0,13132 -10645,23778 -23777,23778 -13132,0 -23778,-10646 -23778,-23778 0,-13132 10646,-23777 23778,-23777 13132,0 23777,10645 23777,23777z"/>
 </g>
</svg>
