<?xml version="1.0" encoding="UTF-8"?>
<!DOCTYPE svg PUBLIC "-//W3C//DTD SVG 1.1//EN" "http://www.w3.org/Graphics/SVG/1.1/DTD/svg11.dtd">
<!-- Creator: CorelDRAW X7 -->
<svg xmlns="http://www.w3.org/2000/svg" xml:space="preserve" width="2.53998cm" height="2.53998cm" version="1.1" shape-rendering="geometricPrecision" text-rendering="geometricPrecision" image-rendering="optimizeQuality" fill-rule="evenodd" clip-rule="evenodd"
viewBox="0 0 253998 253998"
 xmlns:xlink="http://www.w3.org/1999/xlink">
 <g id="Слой_x0020_1">
  <metadata id="CorelCorpID_0Corel-Layer"/>
  <path fill="none" fill-opacity="0.619608" stroke="white" stroke-width="5079" stroke-opacity="0.619608" d="M130809 13352c62064,0 112377,50313 112377,112377 0,62064 -50313,112377 -112377,112377 -62064,0 -112377,-50313 -112377,-112377 0,-62064 50313,-112377 112377,-112377z"/>
  <path fill="#FEFEFE" d="M109700 158105l-8996 -26967c3927,-2711 55286,-36799 59506,-36292 -16,3242 -17709,17718 -20873,20244l-22679 20543c-4367,4268 -4333,1305 -5157,9033 -463,4344 -895,9080 -1801,13439zm-41946 -35346c6367,5363 20660,6154 28603,10606 3352,3620 6044,27427 13787,33879 5141,-2077 14275,-13066 17761,-14967 14188,7675 30255,28713 34822,13464 3805,-12702 18244,-78498 17589,-83711 -783,-6230 -8957,-2530 -12958,-995l-73176 27430c-4689,1750 -9611,3611 -14360,5391 -6142,2303 -11219,2417 -12068,8903z"/>
 </g>
</svg>
