<?xml version="1.0" encoding="UTF-8"?>
<!DOCTYPE svg PUBLIC "-//W3C//DTD SVG 1.1//EN" "http://www.w3.org/Graphics/SVG/1.1/DTD/svg11.dtd">
<!-- Creator: CorelDRAW X7 -->
<svg xmlns="http://www.w3.org/2000/svg" xml:space="preserve" width="2.53998cm" height="2.53998cm" version="1.1" shape-rendering="geometricPrecision" text-rendering="geometricPrecision" image-rendering="optimizeQuality" fill-rule="evenodd" clip-rule="evenodd"
viewBox="0 0 253998 253998"
 xmlns:xlink="http://www.w3.org/1999/xlink">
 <g id="Слой_x0020_1">
  <metadata id="CorelCorpID_0Corel-Layer"/>
  <path fill="none" fill-opacity="0.619608" stroke="white" stroke-width="5079" stroke-opacity="0.619608" d="M126458 12578c62064,0 112377,50313 112377,112377 0,62064 -50313,112377 -112377,112377 -62064,0 -112377,-50313 -112377,-112377 0,-62064 50313,-112377 112377,-112377z"/>
  <g id="_1277098688">
   <path fill="#FEFEFE" d="M124467 93482c6826,-1778 9835,8996 2775,10940 -7220,1988 -10660,-8887 -2775,-10940zm-28223 -8c3112,-803 6051,1561 6647,4018 903,3717 -1452,6409 -4202,7001 -7241,1559 -10117,-9038 -2445,-11019zm17328 52500c-1315,-7464 -2586,-9603 -152,-17638 2909,-9604 11622,-16812 20859,-20314 6195,-2349 10870,-2481 17921,-2458 -1963,-12269 -12066,-21231 -21931,-25497 -23819,-10298 -56477,1614 -59593,27600 -1532,12788 5900,25269 15924,31199l-3868 11992c3361,-1168 11302,-6582 13501,-6957 1504,-257 9142,2828 17339,2073z"/>
   <path fill="#FEFEFE" d="M136691 123215c5715,-2302 8450,6766 2988,8467 -5548,1728 -8959,-6062 -2988,-8467zm22960 -207c5898,-1559 7657,7051 2566,8721 -5824,1909 -8498,-7153 -2566,-8721zm10391 36817c1525,-1408 3232,-2573 4643,-3865 11534,-10567 10976,-28660 -584,-38913 -5467,-4849 -12984,-8825 -23004,-9407 -31142,-1809 -49817,29857 -26688,49858 16367,14153 35852,6044 37926,6659 913,271 4102,2164 5238,2804 1575,888 3793,2177 5413,2685l-2944 -9821z"/>
  </g>
 </g>
</svg>
